<mxfile host="65bd71144e">
    <diagram id="RJOPugZwDBAZk_VlPFvy" name="Page-1">
        <mxGraphModel dx="745" dy="471" grid="1" gridSize="10" guides="1" tooltips="1" connect="1" arrows="1" fold="1" page="1" pageScale="1" pageWidth="1700" pageHeight="1100" math="0" shadow="0">
            <root>
                <mxCell id="0"/>
                <mxCell id="1" parent="0"/>
                <mxCell id="189" style="edgeStyle=orthogonalEdgeStyle;html=1;exitX=0;exitY=0.5;exitDx=0;exitDy=0;entryX=0;entryY=0.5;entryDx=0;entryDy=0;fontSize=10;startArrow=ERzeroToMany;startFill=0;endArrow=ERmandOne;endFill=0;" parent="1" edge="1">
                    <mxGeometry relative="1" as="geometry">
                        <Array as="points">
                            <mxPoint x="840" y="905"/>
                            <mxPoint x="840" y="1080"/>
                            <mxPoint x="440" y="1080"/>
                            <mxPoint x="440" y="835"/>
                        </Array>
                        <mxPoint x="480" y="835" as="targetPoint"/>
                    </mxGeometry>
                </mxCell>
                <mxCell id="227" value="RULES" style="swimlane;horizontal=0;rounded=0;fontSize=10;fillColor=default;swimlaneFillColor=default;startSize=23;" parent="1" vertex="1" collapsed="1">
                    <mxGeometry x="1300" y="450" width="30" height="60" as="geometry">
                        <mxRectangle x="1300" y="450" width="360" height="90" as="alternateBounds"/>
                    </mxGeometry>
                </mxCell>
                <mxCell id="228" value="&lt;div style=&quot;text-align: left&quot;&gt;&lt;span&gt;UNIQUE INDEX ( user_id AND movie_id )&lt;/span&gt;&lt;/div&gt;&lt;div style=&quot;text-align: left&quot;&gt;&lt;span&gt;&lt;br&gt;&lt;/span&gt;&lt;/div&gt;&lt;div style=&quot;text-align: left&quot;&gt;&lt;span&gt;CHECK CONSTRAINT ( rating ) WHERE rating &amp;gt;= 1 AND rating &amp;lt;=&amp;nbsp; 4&amp;nbsp;&lt;/span&gt;&lt;/div&gt;" style="text;html=1;align=center;verticalAlign=middle;resizable=0;points=[];autosize=1;strokeColor=none;fillColor=none;fontSize=10;" parent="227" vertex="1">
                    <mxGeometry x="20" y="20" width="340" height="50" as="geometry"/>
                </mxCell>
                <mxCell id="423" value="user" style="shape=table;startSize=30;container=1;collapsible=0;childLayout=tableLayout;fixedRows=1;rowLines=0;fontStyle=1;align=center;pointerEvents=1;flipH=1;" parent="1" vertex="1">
                    <mxGeometry x="561" y="180" width="320" height="270" as="geometry"/>
                </mxCell>
                <mxCell id="424" value="" style="shape=partialRectangle;html=1;whiteSpace=wrap;collapsible=0;dropTarget=0;pointerEvents=1;fillColor=none;top=0;left=0;bottom=1;right=0;points=[[0,0.5],[1,0.5]];portConstraint=eastwest;" parent="423" vertex="1">
                    <mxGeometry y="30" width="320" height="30" as="geometry"/>
                </mxCell>
                <mxCell id="425" value="&lt;b&gt;PK&lt;/b&gt;" style="shape=partialRectangle;html=1;whiteSpace=wrap;connectable=0;fillColor=none;top=0;left=0;bottom=0;right=0;overflow=hidden;pointerEvents=1;" parent="424" vertex="1">
                    <mxGeometry width="40" height="30" as="geometry">
                        <mxRectangle width="40" height="30" as="alternateBounds"/>
                    </mxGeometry>
                </mxCell>
                <mxCell id="426" value="&lt;b&gt;id&lt;/b&gt;" style="shape=partialRectangle;html=1;whiteSpace=wrap;connectable=0;fillColor=none;top=0;left=0;bottom=0;right=0;align=left;spacingLeft=6;overflow=hidden;pointerEvents=1;" parent="424" vertex="1">
                    <mxGeometry x="40" width="120" height="30" as="geometry">
                        <mxRectangle width="120" height="30" as="alternateBounds"/>
                    </mxGeometry>
                </mxCell>
                <mxCell id="427" value="&lt;b&gt;uuid&lt;/b&gt;" style="shape=partialRectangle;html=1;whiteSpace=wrap;connectable=0;fillColor=none;top=0;left=0;bottom=0;right=0;align=left;spacingLeft=6;overflow=hidden;pointerEvents=1;" parent="424" vertex="1">
                    <mxGeometry x="160" width="160" height="30" as="geometry">
                        <mxRectangle width="160" height="30" as="alternateBounds"/>
                    </mxGeometry>
                </mxCell>
                <mxCell id="428" value="" style="shape=partialRectangle;html=1;whiteSpace=wrap;collapsible=0;dropTarget=0;pointerEvents=1;fillColor=none;top=0;left=0;bottom=0;right=0;points=[[0,0.5],[1,0.5]];portConstraint=eastwest;" parent="423" vertex="1">
                    <mxGeometry y="60" width="320" height="30" as="geometry"/>
                </mxCell>
                <mxCell id="429" value="" style="shape=partialRectangle;html=1;whiteSpace=wrap;connectable=0;fillColor=none;top=0;left=0;bottom=0;right=0;overflow=hidden;pointerEvents=1;" parent="428" vertex="1">
                    <mxGeometry width="40" height="30" as="geometry">
                        <mxRectangle width="40" height="30" as="alternateBounds"/>
                    </mxGeometry>
                </mxCell>
                <mxCell id="430" value="name" style="shape=partialRectangle;html=1;whiteSpace=wrap;connectable=0;fillColor=none;top=0;left=0;bottom=0;right=0;align=left;spacingLeft=6;overflow=hidden;pointerEvents=1;" parent="428" vertex="1">
                    <mxGeometry x="40" width="120" height="30" as="geometry">
                        <mxRectangle width="120" height="30" as="alternateBounds"/>
                    </mxGeometry>
                </mxCell>
                <mxCell id="431" value="varchar" style="shape=partialRectangle;html=1;whiteSpace=wrap;connectable=0;fillColor=none;top=0;left=0;bottom=0;right=0;align=left;spacingLeft=6;overflow=hidden;pointerEvents=1;" parent="428" vertex="1">
                    <mxGeometry x="160" width="160" height="30" as="geometry">
                        <mxRectangle width="160" height="30" as="alternateBounds"/>
                    </mxGeometry>
                </mxCell>
                <mxCell id="432" style="shape=partialRectangle;html=1;whiteSpace=wrap;collapsible=0;dropTarget=0;pointerEvents=1;fillColor=none;top=0;left=0;bottom=0;right=0;points=[[0,0.5],[1,0.5]];portConstraint=eastwest;" parent="423" vertex="1">
                    <mxGeometry y="90" width="320" height="30" as="geometry"/>
                </mxCell>
                <mxCell id="433" style="shape=partialRectangle;html=1;whiteSpace=wrap;connectable=0;fillColor=none;top=0;left=0;bottom=0;right=0;overflow=hidden;pointerEvents=1;" parent="432" vertex="1">
                    <mxGeometry width="40" height="30" as="geometry">
                        <mxRectangle width="40" height="30" as="alternateBounds"/>
                    </mxGeometry>
                </mxCell>
                <mxCell id="434" value="password" style="shape=partialRectangle;html=1;whiteSpace=wrap;connectable=0;fillColor=none;top=0;left=0;bottom=0;right=0;align=left;spacingLeft=6;overflow=hidden;pointerEvents=1;" parent="432" vertex="1">
                    <mxGeometry x="40" width="120" height="30" as="geometry">
                        <mxRectangle width="120" height="30" as="alternateBounds"/>
                    </mxGeometry>
                </mxCell>
                <mxCell id="435" value="varchar" style="shape=partialRectangle;html=1;whiteSpace=wrap;connectable=0;fillColor=none;top=0;left=0;bottom=0;right=0;align=left;spacingLeft=6;overflow=hidden;pointerEvents=1;" parent="432" vertex="1">
                    <mxGeometry x="160" width="160" height="30" as="geometry">
                        <mxRectangle width="160" height="30" as="alternateBounds"/>
                    </mxGeometry>
                </mxCell>
                <mxCell id="436" style="shape=partialRectangle;html=1;whiteSpace=wrap;collapsible=0;dropTarget=0;pointerEvents=1;fillColor=none;top=0;left=0;bottom=0;right=0;points=[[0,0.5],[1,0.5]];portConstraint=eastwest;" parent="423" vertex="1">
                    <mxGeometry y="120" width="320" height="30" as="geometry"/>
                </mxCell>
                <mxCell id="437" style="shape=partialRectangle;html=1;whiteSpace=wrap;connectable=0;fillColor=none;top=0;left=0;bottom=0;right=0;overflow=hidden;pointerEvents=1;" parent="436" vertex="1">
                    <mxGeometry width="40" height="30" as="geometry">
                        <mxRectangle width="40" height="30" as="alternateBounds"/>
                    </mxGeometry>
                </mxCell>
                <mxCell id="438" value="email" style="shape=partialRectangle;html=1;whiteSpace=wrap;connectable=0;fillColor=none;top=0;left=0;bottom=0;right=0;align=left;spacingLeft=6;overflow=hidden;pointerEvents=1;" parent="436" vertex="1">
                    <mxGeometry x="40" width="120" height="30" as="geometry">
                        <mxRectangle width="120" height="30" as="alternateBounds"/>
                    </mxGeometry>
                </mxCell>
                <mxCell id="439" value="varchar" style="shape=partialRectangle;html=1;whiteSpace=wrap;connectable=0;fillColor=none;top=0;left=0;bottom=0;right=0;align=left;spacingLeft=6;overflow=hidden;pointerEvents=1;" parent="436" vertex="1">
                    <mxGeometry x="160" width="160" height="30" as="geometry">
                        <mxRectangle width="160" height="30" as="alternateBounds"/>
                    </mxGeometry>
                </mxCell>
                <mxCell id="444" style="shape=partialRectangle;html=1;whiteSpace=wrap;collapsible=0;dropTarget=0;pointerEvents=1;fillColor=none;top=0;left=0;bottom=0;right=0;points=[[0,0.5],[1,0.5]];portConstraint=eastwest;" parent="423" vertex="1">
                    <mxGeometry y="150" width="320" height="30" as="geometry"/>
                </mxCell>
                <mxCell id="445" style="shape=partialRectangle;html=1;whiteSpace=wrap;connectable=0;fillColor=none;top=0;left=0;bottom=0;right=0;overflow=hidden;pointerEvents=1;" parent="444" vertex="1">
                    <mxGeometry width="40" height="30" as="geometry">
                        <mxRectangle width="40" height="30" as="alternateBounds"/>
                    </mxGeometry>
                </mxCell>
                <mxCell id="446" value="role" style="shape=partialRectangle;html=1;whiteSpace=wrap;connectable=0;fillColor=none;top=0;left=0;bottom=0;right=0;align=left;spacingLeft=6;overflow=hidden;pointerEvents=1;" parent="444" vertex="1">
                    <mxGeometry x="40" width="120" height="30" as="geometry">
                        <mxRectangle width="120" height="30" as="alternateBounds"/>
                    </mxGeometry>
                </mxCell>
                <mxCell id="447" value="enum (admin, user)" style="shape=partialRectangle;html=1;whiteSpace=wrap;connectable=0;fillColor=none;top=0;left=0;bottom=0;right=0;align=left;spacingLeft=6;overflow=hidden;pointerEvents=1;" parent="444" vertex="1">
                    <mxGeometry x="160" width="160" height="30" as="geometry">
                        <mxRectangle width="160" height="30" as="alternateBounds"/>
                    </mxGeometry>
                </mxCell>
                <mxCell id="448" style="shape=partialRectangle;html=1;whiteSpace=wrap;collapsible=0;dropTarget=0;pointerEvents=1;fillColor=none;top=0;left=0;bottom=0;right=0;points=[[0,0.5],[1,0.5]];portConstraint=eastwest;" parent="423" vertex="1">
                    <mxGeometry y="180" width="320" height="30" as="geometry"/>
                </mxCell>
                <mxCell id="449" style="shape=partialRectangle;html=1;whiteSpace=wrap;connectable=0;fillColor=none;top=0;left=0;bottom=0;right=0;overflow=hidden;pointerEvents=1;" parent="448" vertex="1">
                    <mxGeometry width="40" height="30" as="geometry">
                        <mxRectangle width="40" height="30" as="alternateBounds"/>
                    </mxGeometry>
                </mxCell>
                <mxCell id="450" value="deleted_at" style="shape=partialRectangle;html=1;whiteSpace=wrap;connectable=0;fillColor=none;top=0;left=0;bottom=0;right=0;align=left;spacingLeft=6;overflow=hidden;pointerEvents=1;" parent="448" vertex="1">
                    <mxGeometry x="40" width="120" height="30" as="geometry">
                        <mxRectangle width="120" height="30" as="alternateBounds"/>
                    </mxGeometry>
                </mxCell>
                <mxCell id="451" value="timestamp OR null" style="shape=partialRectangle;html=1;whiteSpace=wrap;connectable=0;fillColor=none;top=0;left=0;bottom=0;right=0;align=left;spacingLeft=6;overflow=hidden;pointerEvents=1;" parent="448" vertex="1">
                    <mxGeometry x="160" width="160" height="30" as="geometry">
                        <mxRectangle width="160" height="30" as="alternateBounds"/>
                    </mxGeometry>
                </mxCell>
                <mxCell id="452" style="shape=partialRectangle;html=1;whiteSpace=wrap;collapsible=0;dropTarget=0;pointerEvents=1;fillColor=none;top=0;left=0;bottom=0;right=0;points=[[0,0.5],[1,0.5]];portConstraint=eastwest;" parent="423" vertex="1">
                    <mxGeometry y="210" width="320" height="30" as="geometry"/>
                </mxCell>
                <mxCell id="453" style="shape=partialRectangle;html=1;whiteSpace=wrap;connectable=0;fillColor=none;top=0;left=0;bottom=0;right=0;overflow=hidden;pointerEvents=1;" parent="452" vertex="1">
                    <mxGeometry width="40" height="30" as="geometry">
                        <mxRectangle width="40" height="30" as="alternateBounds"/>
                    </mxGeometry>
                </mxCell>
                <mxCell id="454" value="created_at" style="shape=partialRectangle;html=1;whiteSpace=wrap;connectable=0;fillColor=none;top=0;left=0;bottom=0;right=0;align=left;spacingLeft=6;overflow=hidden;pointerEvents=1;" parent="452" vertex="1">
                    <mxGeometry x="40" width="120" height="30" as="geometry">
                        <mxRectangle width="120" height="30" as="alternateBounds"/>
                    </mxGeometry>
                </mxCell>
                <mxCell id="455" value="timestamp" style="shape=partialRectangle;html=1;whiteSpace=wrap;connectable=0;fillColor=none;top=0;left=0;bottom=0;right=0;align=left;spacingLeft=6;overflow=hidden;pointerEvents=1;" parent="452" vertex="1">
                    <mxGeometry x="160" width="160" height="30" as="geometry">
                        <mxRectangle width="160" height="30" as="alternateBounds"/>
                    </mxGeometry>
                </mxCell>
                <mxCell id="456" style="shape=partialRectangle;html=1;whiteSpace=wrap;collapsible=0;dropTarget=0;pointerEvents=1;fillColor=none;top=0;left=0;bottom=0;right=0;points=[[0,0.5],[1,0.5]];portConstraint=eastwest;" parent="423" vertex="1">
                    <mxGeometry y="240" width="320" height="30" as="geometry"/>
                </mxCell>
                <mxCell id="457" style="shape=partialRectangle;html=1;whiteSpace=wrap;connectable=0;fillColor=none;top=0;left=0;bottom=0;right=0;overflow=hidden;pointerEvents=1;" parent="456" vertex="1">
                    <mxGeometry width="40" height="30" as="geometry">
                        <mxRectangle width="40" height="30" as="alternateBounds"/>
                    </mxGeometry>
                </mxCell>
                <mxCell id="458" value="updated_at" style="shape=partialRectangle;html=1;whiteSpace=wrap;connectable=0;fillColor=none;top=0;left=0;bottom=0;right=0;align=left;spacingLeft=6;overflow=hidden;pointerEvents=1;" parent="456" vertex="1">
                    <mxGeometry x="40" width="120" height="30" as="geometry">
                        <mxRectangle width="120" height="30" as="alternateBounds"/>
                    </mxGeometry>
                </mxCell>
                <mxCell id="459" value="timestamp" style="shape=partialRectangle;html=1;whiteSpace=wrap;connectable=0;fillColor=none;top=0;left=0;bottom=0;right=0;align=left;spacingLeft=6;overflow=hidden;pointerEvents=1;" parent="456" vertex="1">
                    <mxGeometry x="160" width="160" height="30" as="geometry">
                        <mxRectangle width="160" height="30" as="alternateBounds"/>
                    </mxGeometry>
                </mxCell>
                <mxCell id="460" value="movie" style="shape=table;startSize=30;container=1;collapsible=0;childLayout=tableLayout;fixedRows=1;rowLines=0;fontStyle=1;align=center;pointerEvents=1;flipH=1;" parent="1" vertex="1">
                    <mxGeometry x="561" y="600" width="320" height="270" as="geometry"/>
                </mxCell>
                <mxCell id="461" value="" style="shape=partialRectangle;html=1;whiteSpace=wrap;collapsible=0;dropTarget=0;pointerEvents=1;fillColor=none;top=0;left=0;bottom=1;right=0;points=[[0,0.5],[1,0.5]];portConstraint=eastwest;" parent="460" vertex="1">
                    <mxGeometry y="30" width="320" height="30" as="geometry"/>
                </mxCell>
                <mxCell id="462" value="&lt;b&gt;PK&lt;/b&gt;" style="shape=partialRectangle;html=1;whiteSpace=wrap;connectable=0;fillColor=none;top=0;left=0;bottom=0;right=0;overflow=hidden;pointerEvents=1;" parent="461" vertex="1">
                    <mxGeometry width="40" height="30" as="geometry">
                        <mxRectangle width="40" height="30" as="alternateBounds"/>
                    </mxGeometry>
                </mxCell>
                <mxCell id="463" value="&lt;b&gt;id&lt;/b&gt;" style="shape=partialRectangle;html=1;whiteSpace=wrap;connectable=0;fillColor=none;top=0;left=0;bottom=0;right=0;align=left;spacingLeft=6;overflow=hidden;pointerEvents=1;" parent="461" vertex="1">
                    <mxGeometry x="40" width="120" height="30" as="geometry">
                        <mxRectangle width="120" height="30" as="alternateBounds"/>
                    </mxGeometry>
                </mxCell>
                <mxCell id="464" value="&lt;b&gt;uuid&lt;/b&gt;" style="shape=partialRectangle;html=1;whiteSpace=wrap;connectable=0;fillColor=none;top=0;left=0;bottom=0;right=0;align=left;spacingLeft=6;overflow=hidden;pointerEvents=1;" parent="461" vertex="1">
                    <mxGeometry x="160" width="160" height="30" as="geometry">
                        <mxRectangle width="160" height="30" as="alternateBounds"/>
                    </mxGeometry>
                </mxCell>
                <mxCell id="465" value="" style="shape=partialRectangle;html=1;whiteSpace=wrap;collapsible=0;dropTarget=0;pointerEvents=1;fillColor=none;top=0;left=0;bottom=0;right=0;points=[[0,0.5],[1,0.5]];portConstraint=eastwest;" parent="460" vertex="1">
                    <mxGeometry y="60" width="320" height="30" as="geometry"/>
                </mxCell>
                <mxCell id="466" value="UQ" style="shape=partialRectangle;html=1;whiteSpace=wrap;connectable=0;fillColor=none;top=0;left=0;bottom=0;right=0;overflow=hidden;pointerEvents=1;" parent="465" vertex="1">
                    <mxGeometry width="40" height="30" as="geometry">
                        <mxRectangle width="40" height="30" as="alternateBounds"/>
                    </mxGeometry>
                </mxCell>
                <mxCell id="467" value="name" style="shape=partialRectangle;html=1;whiteSpace=wrap;connectable=0;fillColor=none;top=0;left=0;bottom=0;right=0;align=left;spacingLeft=6;overflow=hidden;pointerEvents=1;" parent="465" vertex="1">
                    <mxGeometry x="40" width="120" height="30" as="geometry">
                        <mxRectangle width="120" height="30" as="alternateBounds"/>
                    </mxGeometry>
                </mxCell>
                <mxCell id="468" value="varchar" style="shape=partialRectangle;html=1;whiteSpace=wrap;connectable=0;fillColor=none;top=0;left=0;bottom=0;right=0;align=left;spacingLeft=6;overflow=hidden;pointerEvents=1;" parent="465" vertex="1">
                    <mxGeometry x="160" width="160" height="30" as="geometry">
                        <mxRectangle width="160" height="30" as="alternateBounds"/>
                    </mxGeometry>
                </mxCell>
                <mxCell id="469" style="shape=partialRectangle;html=1;whiteSpace=wrap;collapsible=0;dropTarget=0;pointerEvents=1;fillColor=none;top=0;left=0;bottom=0;right=0;points=[[0,0.5],[1,0.5]];portConstraint=eastwest;" parent="460" vertex="1">
                    <mxGeometry y="90" width="320" height="30" as="geometry"/>
                </mxCell>
                <mxCell id="470" style="shape=partialRectangle;html=1;whiteSpace=wrap;connectable=0;fillColor=none;top=0;left=0;bottom=0;right=0;overflow=hidden;pointerEvents=1;" parent="469" vertex="1">
                    <mxGeometry width="40" height="30" as="geometry">
                        <mxRectangle width="40" height="30" as="alternateBounds"/>
                    </mxGeometry>
                </mxCell>
                <mxCell id="471" value="director" style="shape=partialRectangle;html=1;whiteSpace=wrap;connectable=0;fillColor=none;top=0;left=0;bottom=0;right=0;align=left;spacingLeft=6;overflow=hidden;pointerEvents=1;" parent="469" vertex="1">
                    <mxGeometry x="40" width="120" height="30" as="geometry">
                        <mxRectangle width="120" height="30" as="alternateBounds"/>
                    </mxGeometry>
                </mxCell>
                <mxCell id="472" value="varchar" style="shape=partialRectangle;html=1;whiteSpace=wrap;connectable=0;fillColor=none;top=0;left=0;bottom=0;right=0;align=left;spacingLeft=6;overflow=hidden;pointerEvents=1;" parent="469" vertex="1">
                    <mxGeometry x="160" width="160" height="30" as="geometry">
                        <mxRectangle width="160" height="30" as="alternateBounds"/>
                    </mxGeometry>
                </mxCell>
                <mxCell id="473" style="shape=partialRectangle;html=1;whiteSpace=wrap;collapsible=0;dropTarget=0;pointerEvents=1;fillColor=none;top=0;left=0;bottom=0;right=0;points=[[0,0.5],[1,0.5]];portConstraint=eastwest;" parent="460" vertex="1">
                    <mxGeometry y="120" width="320" height="30" as="geometry"/>
                </mxCell>
                <mxCell id="474" style="shape=partialRectangle;html=1;whiteSpace=wrap;connectable=0;fillColor=none;top=0;left=0;bottom=0;right=0;overflow=hidden;pointerEvents=1;" parent="473" vertex="1">
                    <mxGeometry width="40" height="30" as="geometry">
                        <mxRectangle width="40" height="30" as="alternateBounds"/>
                    </mxGeometry>
                </mxCell>
                <mxCell id="475" value="genres&lt;br&gt;" style="shape=partialRectangle;html=1;whiteSpace=wrap;connectable=0;fillColor=none;top=0;left=0;bottom=0;right=0;align=left;spacingLeft=6;overflow=hidden;pointerEvents=1;" parent="473" vertex="1">
                    <mxGeometry x="40" width="120" height="30" as="geometry">
                        <mxRectangle width="120" height="30" as="alternateBounds"/>
                    </mxGeometry>
                </mxCell>
                <mxCell id="476" value="json" style="shape=partialRectangle;html=1;whiteSpace=wrap;connectable=0;fillColor=none;top=0;left=0;bottom=0;right=0;align=left;spacingLeft=6;overflow=hidden;pointerEvents=1;" parent="473" vertex="1">
                    <mxGeometry x="160" width="160" height="30" as="geometry">
                        <mxRectangle width="160" height="30" as="alternateBounds"/>
                    </mxGeometry>
                </mxCell>
                <mxCell id="477" style="shape=partialRectangle;html=1;whiteSpace=wrap;collapsible=0;dropTarget=0;pointerEvents=1;fillColor=none;top=0;left=0;bottom=0;right=0;points=[[0,0.5],[1,0.5]];portConstraint=eastwest;" parent="460" vertex="1">
                    <mxGeometry y="150" width="320" height="30" as="geometry"/>
                </mxCell>
                <mxCell id="478" style="shape=partialRectangle;html=1;whiteSpace=wrap;connectable=0;fillColor=none;top=0;left=0;bottom=0;right=0;overflow=hidden;pointerEvents=1;" parent="477" vertex="1">
                    <mxGeometry width="40" height="30" as="geometry">
                        <mxRectangle width="40" height="30" as="alternateBounds"/>
                    </mxGeometry>
                </mxCell>
                <mxCell id="479" value="actors" style="shape=partialRectangle;html=1;whiteSpace=wrap;connectable=0;fillColor=none;top=0;left=0;bottom=0;right=0;align=left;spacingLeft=6;overflow=hidden;pointerEvents=1;" parent="477" vertex="1">
                    <mxGeometry x="40" width="120" height="30" as="geometry">
                        <mxRectangle width="120" height="30" as="alternateBounds"/>
                    </mxGeometry>
                </mxCell>
                <mxCell id="480" value="json" style="shape=partialRectangle;html=1;whiteSpace=wrap;connectable=0;fillColor=none;top=0;left=0;bottom=0;right=0;align=left;spacingLeft=6;overflow=hidden;pointerEvents=1;" parent="477" vertex="1">
                    <mxGeometry x="160" width="160" height="30" as="geometry">
                        <mxRectangle width="160" height="30" as="alternateBounds"/>
                    </mxGeometry>
                </mxCell>
                <mxCell id="481" style="shape=partialRectangle;html=1;whiteSpace=wrap;collapsible=0;dropTarget=0;pointerEvents=1;fillColor=none;top=0;left=0;bottom=0;right=0;points=[[0,0.5],[1,0.5]];portConstraint=eastwest;" parent="460" vertex="1">
                    <mxGeometry y="180" width="320" height="30" as="geometry"/>
                </mxCell>
                <mxCell id="482" value="FK" style="shape=partialRectangle;html=1;whiteSpace=wrap;connectable=0;fillColor=none;top=0;left=0;bottom=0;right=0;overflow=hidden;pointerEvents=1;" parent="481" vertex="1">
                    <mxGeometry width="40" height="30" as="geometry">
                        <mxRectangle width="40" height="30" as="alternateBounds"/>
                    </mxGeometry>
                </mxCell>
                <mxCell id="483" value="created_by" style="shape=partialRectangle;html=1;whiteSpace=wrap;connectable=0;fillColor=none;top=0;left=0;bottom=0;right=0;align=left;spacingLeft=6;overflow=hidden;pointerEvents=1;" parent="481" vertex="1">
                    <mxGeometry x="40" width="120" height="30" as="geometry">
                        <mxRectangle width="120" height="30" as="alternateBounds"/>
                    </mxGeometry>
                </mxCell>
                <mxCell id="484" value="uuid" style="shape=partialRectangle;html=1;whiteSpace=wrap;connectable=0;fillColor=none;top=0;left=0;bottom=0;right=0;align=left;spacingLeft=6;overflow=hidden;pointerEvents=1;" parent="481" vertex="1">
                    <mxGeometry x="160" width="160" height="30" as="geometry">
                        <mxRectangle width="160" height="30" as="alternateBounds"/>
                    </mxGeometry>
                </mxCell>
                <mxCell id="485" style="shape=partialRectangle;html=1;whiteSpace=wrap;collapsible=0;dropTarget=0;pointerEvents=1;fillColor=none;top=0;left=0;bottom=0;right=0;points=[[0,0.5],[1,0.5]];portConstraint=eastwest;" parent="460" vertex="1">
                    <mxGeometry y="210" width="320" height="30" as="geometry"/>
                </mxCell>
                <mxCell id="486" style="shape=partialRectangle;html=1;whiteSpace=wrap;connectable=0;fillColor=none;top=0;left=0;bottom=0;right=0;overflow=hidden;pointerEvents=1;" parent="485" vertex="1">
                    <mxGeometry width="40" height="30" as="geometry">
                        <mxRectangle width="40" height="30" as="alternateBounds"/>
                    </mxGeometry>
                </mxCell>
                <mxCell id="487" value="created_at" style="shape=partialRectangle;html=1;whiteSpace=wrap;connectable=0;fillColor=none;top=0;left=0;bottom=0;right=0;align=left;spacingLeft=6;overflow=hidden;pointerEvents=1;" parent="485" vertex="1">
                    <mxGeometry x="40" width="120" height="30" as="geometry">
                        <mxRectangle width="120" height="30" as="alternateBounds"/>
                    </mxGeometry>
                </mxCell>
                <mxCell id="488" value="timestamp" style="shape=partialRectangle;html=1;whiteSpace=wrap;connectable=0;fillColor=none;top=0;left=0;bottom=0;right=0;align=left;spacingLeft=6;overflow=hidden;pointerEvents=1;" parent="485" vertex="1">
                    <mxGeometry x="160" width="160" height="30" as="geometry">
                        <mxRectangle width="160" height="30" as="alternateBounds"/>
                    </mxGeometry>
                </mxCell>
                <mxCell id="489" style="shape=partialRectangle;html=1;whiteSpace=wrap;collapsible=0;dropTarget=0;pointerEvents=1;fillColor=none;top=0;left=0;bottom=0;right=0;points=[[0,0.5],[1,0.5]];portConstraint=eastwest;" parent="460" vertex="1">
                    <mxGeometry y="240" width="320" height="30" as="geometry"/>
                </mxCell>
                <mxCell id="490" style="shape=partialRectangle;html=1;whiteSpace=wrap;connectable=0;fillColor=none;top=0;left=0;bottom=0;right=0;overflow=hidden;pointerEvents=1;" parent="489" vertex="1">
                    <mxGeometry width="40" height="30" as="geometry">
                        <mxRectangle width="40" height="30" as="alternateBounds"/>
                    </mxGeometry>
                </mxCell>
                <mxCell id="491" value="updated_at" style="shape=partialRectangle;html=1;whiteSpace=wrap;connectable=0;fillColor=none;top=0;left=0;bottom=0;right=0;align=left;spacingLeft=6;overflow=hidden;pointerEvents=1;" parent="489" vertex="1">
                    <mxGeometry x="40" width="120" height="30" as="geometry">
                        <mxRectangle width="120" height="30" as="alternateBounds"/>
                    </mxGeometry>
                </mxCell>
                <mxCell id="492" value="timestamp" style="shape=partialRectangle;html=1;whiteSpace=wrap;connectable=0;fillColor=none;top=0;left=0;bottom=0;right=0;align=left;spacingLeft=6;overflow=hidden;pointerEvents=1;" parent="489" vertex="1">
                    <mxGeometry x="160" width="160" height="30" as="geometry">
                        <mxRectangle width="160" height="30" as="alternateBounds"/>
                    </mxGeometry>
                </mxCell>
                <mxCell id="493" value="user_movie_relation" style="shape=table;startSize=30;container=1;collapsible=0;childLayout=tableLayout;fixedRows=1;rowLines=0;fontStyle=1;align=center;pointerEvents=1;flipH=1;" parent="1" vertex="1">
                    <mxGeometry x="980" y="450" width="320" height="210" as="geometry"/>
                </mxCell>
                <mxCell id="494" value="" style="shape=partialRectangle;html=1;whiteSpace=wrap;collapsible=0;dropTarget=0;pointerEvents=1;fillColor=none;top=0;left=0;bottom=1;right=0;points=[[0,0.5],[1,0.5]];portConstraint=eastwest;" parent="493" vertex="1">
                    <mxGeometry y="30" width="320" height="30" as="geometry"/>
                </mxCell>
                <mxCell id="495" value="&lt;b&gt;PK&lt;/b&gt;" style="shape=partialRectangle;html=1;whiteSpace=wrap;connectable=0;fillColor=none;top=0;left=0;bottom=0;right=0;overflow=hidden;pointerEvents=1;" parent="494" vertex="1">
                    <mxGeometry width="40" height="30" as="geometry">
                        <mxRectangle width="40" height="30" as="alternateBounds"/>
                    </mxGeometry>
                </mxCell>
                <mxCell id="496" value="&lt;b&gt;id&lt;/b&gt;" style="shape=partialRectangle;html=1;whiteSpace=wrap;connectable=0;fillColor=none;top=0;left=0;bottom=0;right=0;align=left;spacingLeft=6;overflow=hidden;pointerEvents=1;" parent="494" vertex="1">
                    <mxGeometry x="40" width="120" height="30" as="geometry">
                        <mxRectangle width="120" height="30" as="alternateBounds"/>
                    </mxGeometry>
                </mxCell>
                <mxCell id="497" value="&lt;b&gt;uuid&lt;/b&gt;" style="shape=partialRectangle;html=1;whiteSpace=wrap;connectable=0;fillColor=none;top=0;left=0;bottom=0;right=0;align=left;spacingLeft=6;overflow=hidden;pointerEvents=1;" parent="494" vertex="1">
                    <mxGeometry x="160" width="160" height="30" as="geometry">
                        <mxRectangle width="160" height="30" as="alternateBounds"/>
                    </mxGeometry>
                </mxCell>
                <mxCell id="498" value="" style="shape=partialRectangle;html=1;whiteSpace=wrap;collapsible=0;dropTarget=0;pointerEvents=1;fillColor=none;top=0;left=0;bottom=0;right=0;points=[[0,0.5],[1,0.5]];portConstraint=eastwest;" parent="493" vertex="1">
                    <mxGeometry y="60" width="320" height="30" as="geometry"/>
                </mxCell>
                <mxCell id="499" value="FK" style="shape=partialRectangle;html=1;whiteSpace=wrap;connectable=0;fillColor=none;top=0;left=0;bottom=0;right=0;overflow=hidden;pointerEvents=1;" parent="498" vertex="1">
                    <mxGeometry width="40" height="30" as="geometry">
                        <mxRectangle width="40" height="30" as="alternateBounds"/>
                    </mxGeometry>
                </mxCell>
                <mxCell id="500" value="user_id" style="shape=partialRectangle;html=1;whiteSpace=wrap;connectable=0;fillColor=none;top=0;left=0;bottom=0;right=0;align=left;spacingLeft=6;overflow=hidden;pointerEvents=1;" parent="498" vertex="1">
                    <mxGeometry x="40" width="120" height="30" as="geometry">
                        <mxRectangle width="120" height="30" as="alternateBounds"/>
                    </mxGeometry>
                </mxCell>
                <mxCell id="501" value="uuid" style="shape=partialRectangle;html=1;whiteSpace=wrap;connectable=0;fillColor=none;top=0;left=0;bottom=0;right=0;align=left;spacingLeft=6;overflow=hidden;pointerEvents=1;" parent="498" vertex="1">
                    <mxGeometry x="160" width="160" height="30" as="geometry">
                        <mxRectangle width="160" height="30" as="alternateBounds"/>
                    </mxGeometry>
                </mxCell>
                <mxCell id="502" style="shape=partialRectangle;html=1;whiteSpace=wrap;collapsible=0;dropTarget=0;pointerEvents=1;fillColor=none;top=0;left=0;bottom=0;right=0;points=[[0,0.5],[1,0.5]];portConstraint=eastwest;" parent="493" vertex="1">
                    <mxGeometry y="90" width="320" height="30" as="geometry"/>
                </mxCell>
                <mxCell id="503" value="FK" style="shape=partialRectangle;html=1;whiteSpace=wrap;connectable=0;fillColor=none;top=0;left=0;bottom=0;right=0;overflow=hidden;pointerEvents=1;" parent="502" vertex="1">
                    <mxGeometry width="40" height="30" as="geometry">
                        <mxRectangle width="40" height="30" as="alternateBounds"/>
                    </mxGeometry>
                </mxCell>
                <mxCell id="504" value="movie_id" style="shape=partialRectangle;html=1;whiteSpace=wrap;connectable=0;fillColor=none;top=0;left=0;bottom=0;right=0;align=left;spacingLeft=6;overflow=hidden;pointerEvents=1;" parent="502" vertex="1">
                    <mxGeometry x="40" width="120" height="30" as="geometry">
                        <mxRectangle width="120" height="30" as="alternateBounds"/>
                    </mxGeometry>
                </mxCell>
                <mxCell id="505" value="varchar" style="shape=partialRectangle;html=1;whiteSpace=wrap;connectable=0;fillColor=none;top=0;left=0;bottom=0;right=0;align=left;spacingLeft=6;overflow=hidden;pointerEvents=1;" parent="502" vertex="1">
                    <mxGeometry x="160" width="160" height="30" as="geometry">
                        <mxRectangle width="160" height="30" as="alternateBounds"/>
                    </mxGeometry>
                </mxCell>
                <mxCell id="510" style="shape=partialRectangle;html=1;whiteSpace=wrap;collapsible=0;dropTarget=0;pointerEvents=1;fillColor=none;top=0;left=0;bottom=0;right=0;points=[[0,0.5],[1,0.5]];portConstraint=eastwest;" parent="493" vertex="1">
                    <mxGeometry y="120" width="320" height="30" as="geometry"/>
                </mxCell>
                <mxCell id="511" style="shape=partialRectangle;html=1;whiteSpace=wrap;connectable=0;fillColor=none;top=0;left=0;bottom=0;right=0;overflow=hidden;pointerEvents=1;" parent="510" vertex="1">
                    <mxGeometry width="40" height="30" as="geometry">
                        <mxRectangle width="40" height="30" as="alternateBounds"/>
                    </mxGeometry>
                </mxCell>
                <mxCell id="512" value="rating" style="shape=partialRectangle;html=1;whiteSpace=wrap;connectable=0;fillColor=none;top=0;left=0;bottom=0;right=0;align=left;spacingLeft=6;overflow=hidden;pointerEvents=1;" parent="510" vertex="1">
                    <mxGeometry x="40" width="120" height="30" as="geometry">
                        <mxRectangle width="120" height="30" as="alternateBounds"/>
                    </mxGeometry>
                </mxCell>
                <mxCell id="513" value="smallint" style="shape=partialRectangle;html=1;whiteSpace=wrap;connectable=0;fillColor=none;top=0;left=0;bottom=0;right=0;align=left;spacingLeft=6;overflow=hidden;pointerEvents=1;" parent="510" vertex="1">
                    <mxGeometry x="160" width="160" height="30" as="geometry">
                        <mxRectangle width="160" height="30" as="alternateBounds"/>
                    </mxGeometry>
                </mxCell>
                <mxCell id="518" style="shape=partialRectangle;html=1;whiteSpace=wrap;collapsible=0;dropTarget=0;pointerEvents=1;fillColor=none;top=0;left=0;bottom=0;right=0;points=[[0,0.5],[1,0.5]];portConstraint=eastwest;" parent="493" vertex="1">
                    <mxGeometry y="150" width="320" height="30" as="geometry"/>
                </mxCell>
                <mxCell id="519" style="shape=partialRectangle;html=1;whiteSpace=wrap;connectable=0;fillColor=none;top=0;left=0;bottom=0;right=0;overflow=hidden;pointerEvents=1;" parent="518" vertex="1">
                    <mxGeometry width="40" height="30" as="geometry">
                        <mxRectangle width="40" height="30" as="alternateBounds"/>
                    </mxGeometry>
                </mxCell>
                <mxCell id="520" value="created_at" style="shape=partialRectangle;html=1;whiteSpace=wrap;connectable=0;fillColor=none;top=0;left=0;bottom=0;right=0;align=left;spacingLeft=6;overflow=hidden;pointerEvents=1;" parent="518" vertex="1">
                    <mxGeometry x="40" width="120" height="30" as="geometry">
                        <mxRectangle width="120" height="30" as="alternateBounds"/>
                    </mxGeometry>
                </mxCell>
                <mxCell id="521" value="timestamp" style="shape=partialRectangle;html=1;whiteSpace=wrap;connectable=0;fillColor=none;top=0;left=0;bottom=0;right=0;align=left;spacingLeft=6;overflow=hidden;pointerEvents=1;" parent="518" vertex="1">
                    <mxGeometry x="160" width="160" height="30" as="geometry">
                        <mxRectangle width="160" height="30" as="alternateBounds"/>
                    </mxGeometry>
                </mxCell>
                <mxCell id="522" style="shape=partialRectangle;html=1;whiteSpace=wrap;collapsible=0;dropTarget=0;pointerEvents=1;fillColor=none;top=0;left=0;bottom=0;right=0;points=[[0,0.5],[1,0.5]];portConstraint=eastwest;" parent="493" vertex="1">
                    <mxGeometry y="180" width="320" height="30" as="geometry"/>
                </mxCell>
                <mxCell id="523" style="shape=partialRectangle;html=1;whiteSpace=wrap;connectable=0;fillColor=none;top=0;left=0;bottom=0;right=0;overflow=hidden;pointerEvents=1;" parent="522" vertex="1">
                    <mxGeometry width="40" height="30" as="geometry">
                        <mxRectangle width="40" height="30" as="alternateBounds"/>
                    </mxGeometry>
                </mxCell>
                <mxCell id="524" value="updated_at" style="shape=partialRectangle;html=1;whiteSpace=wrap;connectable=0;fillColor=none;top=0;left=0;bottom=0;right=0;align=left;spacingLeft=6;overflow=hidden;pointerEvents=1;" parent="522" vertex="1">
                    <mxGeometry x="40" width="120" height="30" as="geometry">
                        <mxRectangle width="120" height="30" as="alternateBounds"/>
                    </mxGeometry>
                </mxCell>
                <mxCell id="525" value="timestamp" style="shape=partialRectangle;html=1;whiteSpace=wrap;connectable=0;fillColor=none;top=0;left=0;bottom=0;right=0;align=left;spacingLeft=6;overflow=hidden;pointerEvents=1;" parent="522" vertex="1">
                    <mxGeometry x="160" width="160" height="30" as="geometry">
                        <mxRectangle width="160" height="30" as="alternateBounds"/>
                    </mxGeometry>
                </mxCell>
                <mxCell id="527" style="edgeStyle=orthogonalEdgeStyle;html=1;exitX=0;exitY=0.5;exitDx=0;exitDy=0;entryX=0;entryY=0.5;entryDx=0;entryDy=0;endArrow=ERzeroToMany;endFill=0;startArrow=ERmandOne;startFill=0;" parent="1" source="424" target="481" edge="1">
                    <mxGeometry relative="1" as="geometry">
                        <Array as="points">
                            <mxPoint x="460" y="225"/>
                            <mxPoint x="460" y="795"/>
                        </Array>
                    </mxGeometry>
                </mxCell>
                <mxCell id="528" style="edgeStyle=orthogonalEdgeStyle;html=1;exitX=0;exitY=0.5;exitDx=0;exitDy=0;entryX=0;entryY=0.5;entryDx=0;entryDy=0;startArrow=ERmandOne;startFill=0;endArrow=ERzeroToMany;endFill=0;" parent="1" source="424" target="498" edge="1">
                    <mxGeometry relative="1" as="geometry">
                        <Array as="points">
                            <mxPoint x="500" y="225"/>
                            <mxPoint x="500" y="525"/>
                        </Array>
                    </mxGeometry>
                </mxCell>
                <mxCell id="530" style="edgeStyle=orthogonalEdgeStyle;html=1;exitX=0;exitY=0.5;exitDx=0;exitDy=0;entryX=0;entryY=0.5;entryDx=0;entryDy=0;startArrow=ERmandOne;startFill=0;endArrow=ERzeroToMany;endFill=0;" parent="1" source="461" target="502" edge="1">
                    <mxGeometry relative="1" as="geometry">
                        <Array as="points">
                            <mxPoint x="500" y="645"/>
                            <mxPoint x="500" y="555"/>
                        </Array>
                    </mxGeometry>
                </mxCell>
                <mxCell id="X2qq5McH16UgsPdWDgJd-534" value="RULES" style="swimlane;horizontal=0;rounded=0;fontSize=10;fillColor=default;swimlaneFillColor=default;startSize=23;" parent="1" vertex="1" collapsed="1">
                    <mxGeometry x="881" y="180" width="30" height="60" as="geometry">
                        <mxRectangle x="881" y="180" width="359" height="90" as="alternateBounds"/>
                    </mxGeometry>
                </mxCell>
                <mxCell id="X2qq5McH16UgsPdWDgJd-535" value="&lt;div style=&quot;text-align: left&quot;&gt;&lt;span&gt;UNIQUE INDEX ( email AND deleted_at ) WHERE deleled_at is null&lt;/span&gt;&lt;/div&gt;" style="text;html=1;align=center;verticalAlign=middle;resizable=0;points=[];autosize=1;strokeColor=none;fillColor=none;fontSize=10;" parent="X2qq5McH16UgsPdWDgJd-534" vertex="1">
                    <mxGeometry x="30" y="35" width="320" height="20" as="geometry"/>
                </mxCell>
            </root>
        </mxGraphModel>
    </diagram>
</mxfile>
